PathFileType	4	(X/Y/Z)	C:\Users\86182\Documents\cortex\Trimmed_M4_L9.trc
DataRate	CameraRate	NumFrames	NumMarkers	Units	OrigDataRate	OrigDataStartFrame	OrigNumFrames
100.00	100.00	       87	2	mm	100.00	1	       901
Frame#	Time	gripper			box			
		X1	Y1	Z1	X2	Y2	Z2	

1	0.000	277.06418	150.16698	192.25322	278.74802	148.25307	57.50074	
2	0.010	277.06372	150.16687	192.25247	278.74686	148.25322	57.50142	
3	0.020	277.06339	150.16678	192.25186	278.74710	148.25317	57.50134	
4	0.030	277.06314	150.16672	192.25142	278.74887	148.25293	57.50042	
5	0.040	277.06299	150.16667	192.25113	278.75146	148.25259	57.49899	
6	0.050	277.06299	150.16666	192.25104	278.75400	148.25226	57.49760	
7	0.060	277.06320	150.16669	192.25133	278.75586	148.25201	57.49660	
8	0.070	277.06375	150.16675	192.25217	278.75696	148.25186	57.49602	
9	0.080	277.06470	150.16685	192.25357	278.75763	148.25179	57.49567	
10	0.090	277.06598	150.16699	192.25546	278.75766	148.25179	57.49563	
11	0.100	277.06738	150.16713	192.25758	278.75665	148.25191	57.49617	
12	0.110	277.06882	150.16725	192.25970	278.75449	148.25220	57.49733	
13	0.120	277.07004	150.16733	192.26152	278.75189	148.25256	57.49864	
14	0.130	277.07080	150.16737	192.26265	278.74997	148.25288	57.49938	
15	0.140	277.07089	150.16734	192.26279	278.74954	148.25305	57.49902	
16	0.150	277.07028	150.16725	192.26187	278.75076	148.25308	57.49742	
17	0.160	277.06924	150.16714	192.26030	278.75330	148.25301	57.49486	
18	0.170	277.06815	150.16705	192.25867	278.75644	148.25285	57.49194	
19	0.180	277.06720	150.16696	192.25725	278.75928	148.25267	57.48949	
20	0.190	277.06641	150.16690	192.25606	278.76117	148.25250	57.48811	
21	0.200	277.06558	150.16682	192.25487	278.76193	148.25235	57.48788	
22	0.210	277.06470	150.16676	192.25359	278.76199	148.25223	57.48847	
23	0.220	277.06378	150.16672	192.25229	278.76202	148.25204	57.48931	
24	0.230	277.06290	150.16672	192.25113	278.76248	148.25180	57.48994	
25	0.240	277.06223	150.16676	192.25027	278.76315	148.25156	57.49033	
26	0.250	277.06171	150.16685	192.24974	278.76340	148.25139	57.49077	
27	0.260	277.06131	150.16695	192.24933	278.76288	148.25137	57.49152	
28	0.270	277.06082	150.16698	192.24870	278.76166	148.25145	57.49255	
29	0.280	277.06018	150.16690	192.24770	278.76013	148.25159	57.49369	
30	0.290	277.05942	150.16676	192.24646	278.75851	148.25174	57.49484	
31	0.300	277.05875	150.16658	192.24529	278.75705	148.25188	57.49586	
32	0.310	277.05835	150.16641	192.24451	278.75595	148.25200	57.49661	
33	0.320	277.05829	150.16628	192.24426	278.75549	148.25204	57.49692	
34	0.330	277.05856	150.16621	192.24452	278.75607	148.25197	57.49656	
35	0.340	277.05911	150.16620	192.24524	278.75797	148.25177	57.49537	
36	0.350	277.05988	150.16623	192.24634	278.76083	148.25143	57.49354	
37	0.360	277.06088	150.16629	192.24782	278.76364	148.25113	57.49174	
38	0.370	277.06204	150.16638	192.24954	278.76532	148.25095	57.49067	
39	0.380	277.06305	150.16647	192.25104	278.76547	148.25093	57.49059	
40	0.390	277.06345	150.16650	192.25166	278.76413	148.25108	57.49142	
41	0.400	277.06305	150.16647	192.25108	278.76172	148.25134	57.49295	
42	0.410	277.06201	150.16638	192.24956	278.75894	148.25166	57.49469	
43	0.420	277.06076	150.16628	192.24771	278.75687	148.25189	57.49600	
44	0.430	277.05978	150.16621	192.24625	278.75604	148.25198	57.49653	
45	0.440	277.05930	150.16618	192.24553	278.75623	148.25197	57.49642	
46	0.450	277.05933	150.16620	192.24561	278.75684	148.25189	57.49602	
47	0.460	277.05981	150.16626	192.24632	278.75754	148.25182	57.49557	
48	0.470	277.06070	150.16635	192.24765	278.75827	148.25174	57.49512	
49	0.480	277.06204	150.16647	192.24966	278.75900	148.25166	57.49466	
50	0.490	277.06384	150.16663	192.25235	278.75961	148.25159	57.49427	
51	0.500	277.06589	150.16679	192.25539	278.75995	148.25156	57.49407	
52	0.510	277.06772	150.16693	192.25812	278.75986	148.25156	57.49413	
53	0.520	277.06882	150.16699	192.25975	278.75943	148.25160	57.49440	
54	0.530	277.06894	150.16696	192.25992	278.75888	148.25166	57.49474	
55	0.540	277.06821	150.16687	192.25879	278.75861	148.25169	57.49492	
56	0.550	277.06686	150.16672	192.25677	278.75888	148.25166	57.49475	
57	0.560	277.06516	150.16656	192.25424	278.75961	148.25159	57.49430	
58	0.570	277.06332	150.16640	192.25150	278.76035	148.25150	57.49383	
59	0.580	277.06158	150.16628	192.24893	278.76074	148.25145	57.49357	
60	0.590	277.06033	150.16621	192.24709	278.76105	148.25143	57.49337	
61	0.600	277.05981	150.16621	192.24629	278.76187	148.25134	57.49282	
62	0.610	277.05997	150.16628	192.24654	278.76346	148.25117	57.49176	
63	0.620	277.06064	150.16638	192.24756	278.76535	148.25098	57.49050	
64	0.630	277.06165	150.16650	192.24904	278.76657	148.25085	57.48962	
65	0.640	277.06259	150.16660	192.25046	278.76639	148.25090	57.48964	
66	0.650	277.06317	150.16666	192.25131	278.76465	148.25111	57.49066	
67	0.660	277.06326	150.16664	192.25146	278.76212	148.25140	57.49224	
68	0.670	277.06296	150.16658	192.25098	278.75998	148.25163	57.49361	
69	0.680	277.06229	150.16649	192.24998	278.75916	148.25171	57.49422	
70	0.690	277.06137	150.16637	192.24863	278.75980	148.25162	57.49392	
71	0.700	277.06046	150.16626	192.24725	278.76154	148.25140	57.49292	
72	0.710	277.05975	150.16620	192.24622	278.76382	148.25113	57.49155	
73	0.720	277.05939	150.16618	192.24568	278.76620	148.25084	57.49013	
74	0.730	277.05933	150.16621	192.24562	278.76813	148.25063	57.48895	
75	0.740	277.05945	150.16626	192.24583	278.76938	148.25047	57.48817	
76	0.750	277.05966	150.16631	192.24620	278.77002	148.25041	57.48775	
77	0.760	277.06000	150.16637	192.24670	278.77039	148.25038	57.48748	
78	0.770	277.06042	150.16643	192.24734	278.77081	148.25035	57.48711	
79	0.780	277.06085	150.16646	192.24796	278.77142	148.25031	57.48657	
80	0.790	277.06116	150.16647	192.24832	278.77188	148.25031	57.48605	
81	0.800	277.06131	150.16643	192.24837	278.77203	148.25035	57.48569	
82	0.810	277.06134	150.16637	192.24814	278.77200	148.25041	57.48541	
83	0.820	277.06137	150.16628	192.24780	278.77237	148.25043	57.48493	
84	0.830	277.06149	150.16620	192.24748	278.77371	148.25031	57.48399	
85	0.840	277.06161	150.16611	192.24719	278.77618	148.25003	57.48251	
86	0.850	277.06165	150.16603	192.24680	278.77933	148.24963	57.48077	
87	0.860	277.06137	150.16599	192.24631	278.78226	148.24928	57.47923	
